<?xml version="1.0" encoding="UTF-8"?>
<svg id="Layer_2" data-name="Layer 2" xmlns="http://www.w3.org/2000/svg" viewBox="0 0 800 225.19">
  <defs>
    <style>
      .cls-1 {
        fill: #fff;
      }
    </style>
  </defs>
  <g id="Layer_1-2" data-name="Layer 1">
    <g>
      <path class="cls-1" d="M104.18,72.72c1.8-2.65,3.77-2.99,5.36-2.99s4.26.34,6.06,2.99c14.17,19.47,37.57,58.25,54.82,86.85,11.25,18.65,19.9,32.98,21.67,34.81,6.66,6.84,15.79,2.58,21.09-5.18,5.22-7.64,6.67-13.01,6.67-18.74,0-3.9-75.67-144.63-83.29-156.34-7.33-11.27-9.72-14.11-22.26-14.11h-9.39c-12.51,0-14.31,2.85-21.64,14.11C75.67,25.83,0,166.56,0,170.46c0,5.73,1.45,11.09,6.67,18.74,5.31,7.76,14.44,12.03,21.09,5.18,1.77-1.82,10.42-16.15,21.67-34.81,17.26-28.61,40.58-67.38,54.75-86.85Z"/>
      <path class="cls-1" d="M606,61.55c31.17,0,55.95,28.14,55.95,62.94s-24.78,63.18-55.95,63.18c-16.69,0-29.69-6.91-38.04-19.5h0v57.01h-34.6V64.02h34.6v17.03c8.34-12.59,21.35-19.5,38.04-19.5ZM737.43,61.55c35.33,0,62.57,27.15,62.57,63.18s-27.24,62.94-62.57,62.94-62.58-26.9-62.58-62.94,26.99-63.18,62.58-63.18ZM377.74,12.44v35.05h-68.96v31.1h61.35v35.05h-61.35v36.53h68.96v35.05h-105.27V12.44h105.27ZM434.04,64.02l19.88,28.63,20.12-28.63h41.23l-40.74,58.49,43.68,62.69h-41.72l-22.82-32.83-22.82,32.83h-41.23l43.43-62.44-40.74-58.74h41.72ZM598.15,94.63c-16.93,0-30.18,13.08-30.18,29.86s13.25,29.86,30.18,29.86,30.18-13.08,30.18-29.86-13.5-29.86-30.18-29.86ZM737.43,94.87c-16.45,0-28.71,12.59-28.71,29.86s12.27,29.62,28.71,29.62,28.71-12.83,28.71-29.62-12.52-29.86-28.71-29.86Z"/>
    </g>
  </g>
</svg>