<?xml version="1.0" encoding="UTF-8"?>
<svg id="Layer_2" xmlns="http://www.w3.org/2000/svg" version="1.1" viewBox="0 0 800 225.2">
  <!-- Generator: Adobe Illustrator 29.5.1, SVG Export Plug-In . SVG Version: 2.1.0 Build 141)  -->
  <g id="Layer_1-2">
    <g>
      <path d="M104.2,72.7c1.8-2.7,3.8-3,5.4-3s4.3.3,6.1,3c14.2,19.5,37.6,58.2,54.8,86.9,11.2,18.6,19.9,33,21.7,34.8,6.7,6.8,15.8,2.6,21.1-5.2,5.2-7.6,6.7-13,6.7-18.7S144.2,25.8,136.6,14.1C129.2,2.9,126.8,0,114.3,0h-9.4c-12.5,0-14.3,2.8-21.6,14.1C75.7,25.8,0,166.6,0,170.5c0,5.7,1.5,11.1,6.7,18.7,5.3,7.8,14.4,12,21.1,5.2,1.8-1.8,10.4-16.1,21.7-34.8,17.3-28.6,40.6-67.4,54.8-86.9Z"/>
      <path d="M606,61.5c31.2,0,56,28.1,56,62.9s-24.8,63.2-56,63.2-29.7-6.9-38-19.5h0v57h-34.6V64h34.6v17c8.3-12.6,21.3-19.5,38-19.5ZM737.4,61.5c35.3,0,62.6,27.1,62.6,63.2s-27.2,62.9-62.6,62.9-62.6-26.9-62.6-62.9,27-63.2,62.6-63.2ZM377.7,12.4v35h-69v31.1h61.4v35.1h-61.4v36.5h69v35.1h-105.3V12.4h105.3ZM434,64l19.9,28.6,20.1-28.6h41.2l-40.7,58.5,43.7,62.7h-41.7l-22.8-32.8-22.8,32.8h-41.2l43.4-62.4-40.7-58.7h41.7ZM598.2,94.6c-16.9,0-30.2,13.1-30.2,29.9s13.2,29.9,30.2,29.9,30.2-13.1,30.2-29.9-13.5-29.9-30.2-29.9ZM737.4,94.9c-16.5,0-28.7,12.6-28.7,29.9s12.3,29.6,28.7,29.6,28.7-12.8,28.7-29.6-12.5-29.9-28.7-29.9Z"/>
    </g>
  </g>
</svg>