<?xml version="1.0" encoding="UTF-8"?>
<svg id="Layer_1" xmlns="http://www.w3.org/2000/svg" version="1.1" viewBox="0 0 576.3 90">
  <!-- Generator: Adobe Illustrator 29.5.1, SVG Export Plug-In . SVG Version: 2.1.0 Build 141)  -->
  <defs>
    <style>
      .st0 {
        fill: #fff;
      }
    </style>
  </defs>
  <g>
    <path class="st0" d="M457.5,88.7c-.8-.9-1.3-1.9-1.3-3.1s.4-2.2,1.3-3.1c.9-.8,1.9-1.3,3.1-1.3s2.2.4,3.1,1.3c.8.8,1.3,1.9,1.3,3.1s-.4,2.2-1.3,3.1c-.9.8-1.9,1.3-3.1,1.3s-2.2-.4-3.1-1.3Z"/>
    <path class="st0" d="M499.2,90l-3.4-7.5h-16.1l-3.3,7.5h-8.2l15.9-34.7h7.4l15.9,34.7h-8.2,0ZM487.8,64.4l-4.7,10.6h9.5l-4.7-10.6h0Z"/>
    <path class="st0" d="M511.3,90v-34.7h19.3c2.3,0,4.3.5,5.9,1.5,1.7,1,3,2.4,3.9,4.2.9,1.8,1.4,3.8,1.4,6,0,3.4-1,6.2-3.1,8.4s-4.8,3.3-8.1,3.3h-11.6v11.3h-7.7,0ZM533.1,70.2c.7-.8,1-1.8,1-3.2s-.4-2.4-1.1-3.2c-.7-.7-1.5-1.1-2.4-1.1h-11.6v8.6h11.6c1,0,1.9-.4,2.5-1.1h0Z"/>
    <path class="st0" d="M545.7,90v-34.7h19.3c2.3,0,4.3.5,5.9,1.5,1.7,1,3,2.4,3.9,4.2.9,1.8,1.4,3.8,1.4,6,0,3.4-1,6.2-3.1,8.4s-4.8,3.3-8.1,3.3h-11.6v11.3s-7.7,0-7.7,0ZM567.5,70.2c.7-.8,1-1.8,1-3.2s-.4-2.4-1.1-3.2c-.7-.7-1.5-1.1-2.4-1.1h-11.6v8.6h11.6c1,0,1.9-.4,2.5-1.1h0Z"/>
  </g>
  <g>
    <path class="st0" d="M83.9,61.1c0,5-1.6,9.6-4.8,14-3.4,4.5-8.1,8-14.4,10.8-6.3,2.7-14.1,4.1-23,4.1s-12.4-.8-17.9-2.3c-5.7-1.6-10.4-3.6-14.4-6-3.5-2.1-6.7-4.6-9.3-7.5l10.8-11.9c1.7,1.6,3.6,3.2,5.9,4.9,2.9,2.1,6.4,3.8,10.6,5.4,4.2,1.6,9,2.4,14.2,2.4s9.5-.8,13.4-2.3c4-1.5,7.1-3.2,9.3-5.3,2.6-2.3,3.7-4.4,3.7-6.4s-.5-3.9-3.7-5.5c-1.9-.9-4.6-1.6-8-2-3.5-.4-7.2-.8-11-1-3.5-.2-7.6-.5-11.9-.9-4-.4-7.9-1.1-11.7-2.1-3.6-.9-7-2.3-9.9-4.2-2.9-1.8-5.2-4.2-6.9-7.2-1.7-2.9-2.6-6.8-2.6-11.5s1.6-8.9,4.7-12.9c3.2-4.1,7.6-7.4,13.5-10C26.3,1.3,33.5,0,41.6,0s12,.7,16.9,2.1c5.1,1.5,9.4,3.3,12.9,5.5,3.1,1.8,5.9,4.1,8.6,6.7l-10.9,10.9c-2-1.7-4-3.2-6.2-4.6-2.6-1.7-5.5-3-8.8-4-3.3-1-7.3-1.5-12.2-1.5s-11.7,1.1-16.4,3.4c-5.4,2.5-8,5.2-8,8.2s1.4,4.8,4,6.2c2.2,1.2,5.2,2.1,9,2.6,3.5.5,7.4,1,12.1,1.4,5.4.5,10,1,14.6,1.7,4.9.8,9.3,1.9,13.4,3.6,3.9,1.5,7.2,3.9,9.7,6.9,2.4,2.9,3.6,6.8,3.6,11.9Z"/>
    <path class="st0" d="M193.7.3v48.6c0,7.3-1.3,13.5-3.9,18.8-2.6,5.2-6.1,9.4-10.5,12.7-4.5,3.3-9.6,5.8-15.1,7.3-5.8,1.6-11.6,2.3-17.8,2.3s-12.2-.8-17.8-2.3c-5.6-1.5-10.7-4-15.2-7.3-4.3-3.2-7.8-7.5-10.5-12.7-2.6-5.3-3.9-11.4-3.9-18.8V.3h17.3v48.6c0,5.1,1.5,9.5,4.4,13,2.8,3.4,6.6,6,11.2,7.6,4.4,1.7,9.2,2.6,14.4,2.6s9.9-.8,14.4-2.4c4.6-1.7,8.3-4.2,11.2-7.6,2.9-3.5,4.4-8,4.4-13.2V.3h17.4,0Z"/>
    <polygon class="st0" points="313 0 313 89.9 295.7 89.9 295.7 31.5 293.8 35.1 291.8 38.8 270 79.8 251.8 79.8 230 38.8 228.1 35.1 226.1 31.5 226.1 89.9 208.8 89.9 208.8 0 228.9 0 259 60 260 61.8 260.9 63.6 261.8 61.8 262.7 60 292.9 0 313 0"/>
    <rect class="st0" x="328.1" y=".2" width="17.4" height="89.8"/>
    <polygon class="st0" points="455.2 .2 455.2 16.2 416.5 16.2 416.5 90 399.2 90 399.2 16.2 360.6 16.2 360.6 .2 455.2 .2"/>
  </g>
</svg>