<?xml version="1.0" encoding="UTF-8"?>
<svg id="Layer_1" data-name="Layer 1" xmlns="http://www.w3.org/2000/svg" viewBox="0 0 576.26 90">
  <g>
    <path d="M457.45,88.73c-.84-.86-1.26-1.87-1.26-3.07s.42-2.23,1.26-3.07c.86-.84,1.87-1.26,3.07-1.26s2.21.42,3.07,1.26c.84.84,1.26,1.87,1.26,3.07s-.42,2.21-1.26,3.07c-.86.84-1.87,1.26-3.07,1.26s-2.21-.42-3.07-1.26Z"/>
    <path d="M499.22,89.99l-3.36-7.51h-16.06l-3.34,7.51h-8.2l15.88-34.66h7.37l15.9,34.66h-8.2ZM487.84,64.45l-4.73,10.6h9.45l-4.71-10.6Z"/>
    <path d="M511.31,89.99v-34.66h19.28c2.29,0,4.26.51,5.93,1.51,1.68,1,2.97,2.39,3.89,4.16.9,1.75,1.37,3.78,1.37,6.04,0,3.39-1.04,6.19-3.13,8.38s-4.77,3.31-8.06,3.31h-11.62v11.26h-7.67ZM533.12,70.19c.66-.75,1-1.79,1-3.16s-.37-2.43-1.08-3.18c-.7-.73-1.53-1.11-2.44-1.11h-11.62v8.55h11.62c1.02,0,1.86-.38,2.52-1.11Z"/>
    <path d="M545.69,89.99v-34.66h19.29c2.29,0,4.26.51,5.93,1.51,1.68,1,2.97,2.39,3.89,4.16.9,1.75,1.37,3.78,1.37,6.04,0,3.39-1.04,6.19-3.13,8.38s-4.77,3.31-8.06,3.31h-11.62v11.26h-7.67ZM567.5,70.19c.66-.75,1-1.79,1-3.16s-.37-2.43-1.08-3.18c-.7-.73-1.53-1.11-2.44-1.11h-11.62v8.55h11.62c1.02,0,1.86-.38,2.52-1.11Z"/>
  </g>
  <g>
    <path d="M83.91,61.14c0,5.02-1.6,9.59-4.85,13.98-3.37,4.47-8.09,8-14.41,10.77-6.34,2.74-14.09,4.12-23.04,4.12-6.36,0-12.37-.79-17.86-2.33-5.7-1.62-10.41-3.58-14.42-6C5.82,79.56,2.68,77.07,0,74.22l10.76-11.86c1.67,1.63,3.62,3.22,5.94,4.86,2.93,2.08,6.42,3.84,10.65,5.42,4.22,1.58,8.99,2.38,14.16,2.38s9.47-.77,13.39-2.27c4.05-1.52,7.09-3.24,9.28-5.26,2.55-2.35,3.73-4.38,3.73-6.36,0-1.37-.48-3.9-3.74-5.49-1.93-.93-4.57-1.58-8.05-1.99-3.53-.43-7.25-.75-11.04-.95-3.5-.2-7.59-.46-11.91-.92-3.98-.43-7.92-1.12-11.71-2.09-3.62-.94-6.97-2.35-9.95-4.21-2.92-1.82-5.16-4.18-6.87-7.25-1.71-2.92-2.58-6.79-2.58-11.49s1.57-8.85,4.67-12.85c3.2-4.14,7.63-7.39,13.55-9.96C26.29,1.33,33.47.02,41.63.02c6.33,0,12.02.7,16.91,2.07,5.14,1.49,9.36,3.29,12.89,5.5,3.07,1.84,5.9,4.06,8.63,6.73l-10.89,10.9c-2.01-1.72-4.04-3.23-6.19-4.6-2.58-1.68-5.54-3.02-8.79-3.98-3.28-1.02-7.29-1.52-12.24-1.52-6.17,0-11.68,1.15-16.39,3.38-5.38,2.54-8,5.22-8,8.24,0,2.65,1.39,4.81,4.01,6.23,2.2,1.17,5.22,2.06,9,2.64,3.47.53,7.42.98,12.08,1.39,5.42.49,10.05,1.04,14.56,1.74,4.94.77,9.32,1.93,13.41,3.56,3.93,1.55,7.19,3.89,9.71,6.93,2.4,2.88,3.58,6.79,3.58,11.91Z"/>
    <path d="M193.67.27v48.61c0,7.35-1.27,13.49-3.89,18.75-2.6,5.15-6.13,9.43-10.51,12.7-4.5,3.32-9.58,5.79-15.11,7.33-5.75,1.57-11.57,2.34-17.82,2.34s-12.16-.79-17.75-2.34c-5.57-1.54-10.67-4.01-15.16-7.31-4.33-3.23-7.84-7.52-10.47-12.71-2.62-5.28-3.89-11.41-3.89-18.76V.27h17.35v48.61c0,5.09,1.47,9.47,4.37,13.03,2.83,3.38,6.59,5.95,11.17,7.63,4.39,1.7,9.23,2.56,14.39,2.56s9.93-.82,14.43-2.43c4.62-1.7,8.28-4.18,11.19-7.61,2.89-3.54,4.37-7.97,4.37-13.17V.27h17.35Z"/>
    <polygon points="313.03 .02 313.03 89.95 295.67 89.95 295.67 31.47 293.75 35.07 291.77 38.78 269.98 79.77 251.8 79.77 230.02 38.78 228.05 35.08 226.13 31.45 226.13 89.95 208.77 89.95 208.77 .02 228.89 .02 259.02 59.95 259.95 61.81 260.85 63.63 261.77 61.82 262.71 59.96 292.9 .02 313.03 .02"/>
    <rect x="328.12" y=".16" width="17.35" height="89.84"/>
    <polygon points="455.18 .16 455.18 16.16 416.53 16.16 416.53 90 399.17 90 399.17 16.16 360.57 16.16 360.57 .16 455.18 .16"/>
  </g>
</svg>