<?xml version="1.0" encoding="UTF-8"?>
<svg id="Layer_2" data-name="Layer 2" xmlns="http://www.w3.org/2000/svg" xmlns:xlink="http://www.w3.org/1999/xlink" viewBox="0 0 23.5 5.26">
  <defs>
    <style>
      .cls-1 {
        fill: url(#linear-gradient-2);
      }

      .cls-2 {
        fill: url(#linear-gradient-4);
      }

      .cls-3 {
        fill: url(#linear-gradient-3);
      }

      .cls-4 {
        fill: url(#linear-gradient-5);
      }

      .cls-5 {
        fill: url(#linear-gradient-6);
      }

      .cls-6 {
        fill: url(#linear-gradient);
      }
    </style>
    <linearGradient id="linear-gradient" x1="2091.23" y1="-1133.85" x2="2091.23" y2="-3238.25" gradientTransform="translate(-502.69 -283.46) scale(.25 -.25)" gradientUnits="userSpaceOnUse">
      <stop offset="0" stop-color="#1e90ff"/>
      <stop offset="1" stop-color="#ff1e56"/>
    </linearGradient>
    <linearGradient id="linear-gradient-2" x1="2098.66" y1="-1124.97" x2="2098.66" y2="-3229.37" xlink:href="#linear-gradient"/>
    <linearGradient id="linear-gradient-3" x1="2103.08" y1="-753.16" x2="2103.08" y2="-2857.56" xlink:href="#linear-gradient"/>
    <linearGradient id="linear-gradient-4" x1="2103.08" y1="-42.59" x2="2103.08" y2="-2147" xlink:href="#linear-gradient"/>
    <linearGradient id="linear-gradient-5" x1="2098.66" y1="535.78" x2="2098.66" y2="-1568.63" xlink:href="#linear-gradient"/>
    <linearGradient id="linear-gradient-6" y1="651.45" y2="-1452.96" xlink:href="#linear-gradient"/>
  </defs>
  <g id="Turborepo--Streamline-Svg-Logos">
    <g>
      <path class="cls-6" d="M20.98,0c-.61-.02-1.21.17-1.71.56l.33.19c.4-.29.9-.42,1.38-.4C20.98.36,20.98,0,20.98,0Z"/>
      <path class="cls-1" d="M22.75.79c-.42-.44-.96-.71-1.54-.77v.35c.5.08.94.31,1.29.67,0,0,.25-.25.25-.25Z"/>
      <path class="cls-3" d="M23.5,2.51c-.02-.54-.23-1.08-.58-1.54l-.25.25c.29.4.46.83.48,1.29h.35Z"/>
      <path class="cls-2" d="M22.92,4.3c.35-.46.56-1,.58-1.54h-.35c-.02.46-.19.9-.48,1.29l.25.25Z"/>
      <path class="cls-4" d="M21.2,5.24c.56-.06,1.13-.33,1.54-.77l-.25-.25c-.35.38-.81.61-1.29.67v.35Z"/>
      <path class="cls-5" d="M19.26,4.7c.5.4,1.11.58,1.71.56v-.35c-.48.02-.96-.1-1.38-.4l-.33.19Z"/>
      <path d="M1.31,1.87v2.16h-.72V1.87h-.59v-.61h1.9v.61h-.59ZM2.76,1.26v1.51c0,.08,0,.16,0,.25,0,.08.03.16.06.23.03.07.08.12.15.17.07.04.16.06.28.06s.21-.02.28-.06c.07-.04.12-.1.15-.17s.05-.14.06-.23c0-.09.01-.17.01-.25v-1.51h.72v1.61c0,.43-.1.75-.3.94-.2.2-.5.3-.91.3s-.71-.1-.91-.3c-.2-.2-.3-.51-.3-.94v-1.61s.72,0,.72,0ZM5.57,2.5h.14c.14,0,.25-.03.33-.09.08-.06.11-.14.11-.25s-.04-.19-.11-.25c-.08-.06-.18-.09-.33-.09h-.14s0,.68,0,.68ZM7.16,4.03h-.9l-.69-1.07v1.07h-.72V1.26h1.12c.15,0,.29.02.4.07.12.04.21.11.28.18.08.08.13.17.17.27.04.1.06.21.06.33,0,.21-.05.38-.15.51-.1.13-.25.22-.45.26,0,0,.87,1.14.87,1.14ZM8,3.47h.16c.18,0,.31-.02.39-.07.08-.05.12-.12.12-.22s-.04-.18-.12-.22c-.08-.05-.21-.07-.39-.07h-.16v.59ZM8,2.35h.13c.23,0,.34-.09.34-.27s-.11-.27-.34-.27h-.13v.54ZM7.28,1.26h1.07c.25,0,.45.06.58.18.13.12.2.3.2.53,0,.14-.03.26-.08.35-.05.09-.12.17-.23.23.1.02.19.05.26.09.07.04.13.09.18.15.05.06.08.12.1.2.02.07.03.15.03.24,0,.13-.02.25-.07.35-.04.1-.11.18-.19.25-.08.07-.18.12-.3.15-.12.03-.25.05-.4.05h-1.16s0-2.77,0-2.77ZM10.24,2.64c0,.11.02.21.06.31.04.09.1.17.17.24.07.07.15.12.25.16.1.04.2.06.3.06s.2-.02.3-.06c.1-.04.18-.09.25-.16.07-.07.13-.15.17-.24.04-.09.06-.19.06-.31s-.02-.21-.06-.31c-.04-.09-.1-.17-.17-.24-.07-.07-.15-.12-.25-.16-.09-.04-.19-.06-.3-.06s-.21.02-.3.06c-.09.04-.18.09-.25.16-.07.07-.13.15-.17.24-.04.09-.06.19-.06.31ZM9.49,2.64c0-.21.04-.4.11-.57.08-.18.18-.33.32-.47.13-.13.3-.24.48-.31.19-.08.4-.11.62-.11s.43.04.62.11c.19.07.35.18.49.31.14.13.24.29.32.47.08.18.11.37.11.57s-.04.4-.11.58c-.08.18-.18.33-.32.46-.13.13-.3.24-.49.31-.19.07-.39.11-.62.11s-.43-.04-.62-.11c-.19-.08-.35-.18-.48-.31-.13-.13-.24-.29-.32-.46-.08-.18-.11-.37-.11-.58ZM13.55,2.5h.14c.14,0,.25-.03.33-.09.08-.06.11-.14.11-.25s-.04-.19-.11-.25c-.08-.06-.19-.09-.33-.09h-.14s0,.68,0,.68ZM15.14,4.03h-.9l-.69-1.07v1.07h-.72V1.26h1.12c.15,0,.29.02.4.07.12.04.21.11.28.18.08.08.13.17.17.27.04.1.06.21.06.33,0,.21-.05.38-.15.51-.1.13-.25.22-.45.26,0,0,.87,1.14.87,1.14ZM16.83,1.87h-.86v.46h.81v.61h-.81v.48h.86v.61h-1.58V1.26h1.58v.61ZM17.89,2.53h.24c.26,0,.4-.12.4-.35s-.13-.35-.4-.35h-.24v.69ZM17.89,4.03h-.72V1.26h1.15c.31,0,.55.08.71.24.17.16.25.39.25.68s-.08.52-.25.68c-.16.16-.4.24-.71.24h-.43v.92ZM20.1,2.64c0,.11.02.21.06.31.04.09.1.17.17.24.07.07.15.12.25.16.1.04.2.06.3.06s.2-.02.3-.06c.1-.04.18-.09.25-.16.07-.07.13-.15.17-.24.04-.09.06-.19.06-.31s-.02-.21-.06-.31c-.04-.09-.1-.17-.17-.24-.07-.07-.15-.12-.25-.16-.09-.04-.19-.06-.3-.06s-.21.02-.3.06c-.09.04-.18.09-.25.16-.07.07-.13.15-.17.24-.04.09-.06.19-.06.31ZM19.35,2.64c0-.21.04-.4.11-.57.08-.18.18-.33.32-.47.13-.13.3-.24.48-.31.19-.08.4-.11.62-.11s.43.04.62.11c.19.07.35.18.49.31.14.13.24.29.32.47.08.18.11.37.11.57s-.04.4-.11.58c-.08.18-.18.33-.32.46-.13.13-.3.24-.49.31-.19.07-.39.11-.62.11s-.43-.04-.62-.11c-.19-.08-.35-.18-.48-.31-.13-.13-.24-.29-.32-.46-.08-.18-.11-.37-.11-.58Z"/>
    </g>
  </g>
</svg>